<?xml version="1.0" encoding="UTF-8"?><svg id="Capa_1" xmlns="http://www.w3.org/2000/svg" viewBox="0 0 250.25 94.7"><defs><style>.cls-1{fill:#f6b100;fill-rule:evenodd;stroke-width:0px;}</style></defs><path class="cls-1" d="m243,0H47.11c-13.66,0-25.66,9.12-29.31,22.29L.26,85.52c-.17.63-.26,1.28-.26,1.93,0,4,3.24,7.24,7.24,7.24h198.77s0,0,0,0c14.15,0,26.44-9.77,29.63-23.55l14.43-62.27c.12-.53.19-1.08.19-1.63,0-4-3.24-7.24-7.24-7.24h-.01,0ZM18.8,89.51h-3.97v-1.59h3.97v1.59h0Zm9.92,0h-3.97v-1.59h3.97v1.59h0Zm9.92,0h-3.97v-1.59h3.97v1.59h0Zm9.92,0h-3.97v-1.59h3.97v1.59h0Zm9.92,0h-3.97v-1.59h3.97v1.59h0Zm9.92,0h-3.97v-1.59h3.97v1.59h0Zm9.92,0h-3.97v-1.59h3.97v1.59h0Zm-.18-10.92c-3.01,2.21-6.65,3.41-10.39,3.41H14.06c1.28-5.62,4.35-10.69,8.73-14.43,1.09-.92,2.33-1.65,3.66-2.15,1.34-.49,2.75-.75,4.18-.75h56.67c-1.27,5.58-4.51,10.53-9.13,13.91h0Zm10.12,10.92h-3.97v-1.59h3.97v1.59h0Zm1.01-33.5H31.31c-1.93,0-3.74-.95-4.84-2.53-2.05-2.95-3.15-6.46-3.15-10.05,0-1.23.13-2.46.38-3.66l.23-1.09h58.42s0,0,0,0c1.3,0,2.54.58,3.37,1.58,2.65,3.17,4.11,7.18,4.11,11.32,0,1.49-.19,2.98-.56,4.43h0Zm8.9,33.5h-3.97v-1.59h3.97v1.59h0Zm9.92,0h-3.97v-1.59h3.97v1.59h0Zm9.92,0h-3.97v-1.59h3.97v1.59h0Zm9.92,0h-3.97v-1.59h3.97v1.59h0Zm-6.62-7.64h-18.85l12.29-51.84H25.92c1.28-5.62,4.37-10.67,8.78-14.37,2.28-1.9,5.15-2.95,8.12-2.95h114.55l-4.42,17.33h-19.33l-12.28,51.84h0Zm16.55,7.64h-3.97v-1.59h3.97v1.59h0Zm9.92,0h-3.97v-1.59h3.97v1.59h0Zm9.92,0h-3.97v-1.59h3.97v1.59h0Zm9.92,0h-3.97v-1.59h3.97v1.59h0Zm9.92,0h-3.97v-1.59h3.97v1.59h0Zm9.92,0h-3.97v-1.59h3.97v1.59h0Zm9.92,0h-3.97v-1.59h3.97v1.59h0Zm7.19,0h-1.24v-1.59h1.24c.89,0,1.79-.04,2.65-.13l.16,1.59c-.92.09-1.86.14-2.8.14h0Zm8.78-1.44l-.52-1.5c1.21-.41,2.39-.94,3.51-1.54l.76,1.39c-1.2.65-2.46,1.2-3.75,1.65h0Zm-12.08-6.22c-.63.1-1.27.15-1.91.15h-52.67l16.37-69.3h18.9l-12.31,51.97h8.31l12.29-51.86h18.85l-12.29,51.86h8.18l12.29-51.86h18.82s-12.01,50.7-12.01,50.7c-2.51,10.62-11.93,18.18-22.84,18.33h0Zm20.82,1.01l-1.06-1.17c.95-.86,1.83-1.8,2.63-2.8l1.24.99c-.85,1.06-1.8,2.06-2.8,2.98h0Zm6.11-8.12l-1.42-.72c.58-1.15,1.09-2.35,1.53-3.56l1.49.54c-.45,1.27-1,2.53-1.61,3.74h0Zm2.99-9.62l-1.55-.35.88-3.87,1.55.35-.88,3.87h0Zm2.2-9.68l-1.55-.35.88-3.87,1.55.35-.88,3.87h0Zm2.2-9.68l-1.55-.35.88-3.87,1.55.35-.88,3.87h0Zm2.2-9.68l-1.55-.35.88-3.87,1.55.35-.88,3.87h0Zm2.2-9.68l-1.55-.35.88-3.87,1.55.35-.88,3.87h0Zm2.2-9.68l-1.55-.35.88-3.87,1.55.35-.88,3.87Z"/></svg>