
<svg version="1.0" xmlns="http://www.w3.org/2000/svg" fill="#6C6864"
 width="246.000000pt" height="297.000000pt" viewBox="0 0 246.000000 297.000000"
 preserveAspectRatio="xMidYMid meet">

<g transform="translate(0.000000,297.000000) scale(0.100000,-0.100000)"
fill="#000000" stroke="none">
<path d="M1080 2744 c-177 -38 -348 -171 -429 -334 -59 -121 -71 -189 -71
-417 l0 -193 -56 0 c-31 0 -75 -5 -98 -12 -55 -16 -138 -99 -154 -154 -17 -59
-17 -1209 0 -1268 16 -55 99 -138 154 -154 59 -17 1529 -17 1588 0 55 16 138
99 154 154 17 59 17 1209 0 1268 -16 55 -99 138 -154 154 -23 7 -67 12 -98 12
l-56 0 0 193 c0 228 -12 296 -71 417 -127 256 -423 396 -709 334z m211 -204
c178 -34 315 -171 349 -349 5 -30 10 -130 10 -222 l0 -169 -430 0 -430 0 0
169 c0 92 5 192 10 222 26 135 116 255 234 310 98 46 166 56 257 39z m43
-1200 c58 -40 89 -92 94 -160 6 -75 -10 -120 -59 -168 l-39 -40 0 -121 c0
-169 -26 -221 -110 -221 -84 0 -110 52 -110 221 l0 122 -36 35 c-46 44 -64 88
-64 152 0 63 17 106 61 149 48 49 84 62 160 58 51 -2 75 -8 103 -27z"/>
</g>
</svg>
